<?xml version="1.0" encoding="UTF-8" standalone="no"?>
<?xml-stylesheet type="text/css" href="../style/style.css" ?><svg
   xmlns:dc="http://purl.org/dc/elements/1.1/"
   xmlns:cc="http://creativecommons.org/ns#"
   xmlns:rdf="http://www.w3.org/1999/02/22-rdf-syntax-ns#"
   xmlns:svg="http://www.w3.org/2000/svg"
   xmlns="http://www.w3.org/2000/svg"
   xmlns:sodipodi="http://sodipodi.sourceforge.net/DTD/sodipodi-0.dtd"
   xmlns:inkscape="http://www.inkscape.org/namespaces/inkscape"
   xml:space="preserve"
   height="262.8"
   width="262.8"
   version="1.1"
   y="0px"
   x="0px"
   viewBox="0 0 262.79999 262.79999"
   id="svg2"
   inkscape:version="0.91pre2 r13516"
   sodipodi:docname="find-logo-header.svg"><metadata
     id="metadata31"><rdf:RDF><cc:Work
         rdf:about=""><dc:format>image/svg+xml</dc:format><dc:type
           rdf:resource="http://purl.org/dc/dcmitype/StillImage" /><dc:title></dc:title></cc:Work></rdf:RDF></metadata><defs
     id="defs29" /><sodipodi:namedview
     pagecolor="#ffffff"
     bordercolor="#666666"
     borderopacity="1"
     objecttolerance="10"
     gridtolerance="10"
     guidetolerance="10"
     inkscape:pageopacity="0"
     inkscape:pageshadow="2"
     inkscape:window-width="1920"
     inkscape:window-height="1001"
     id="namedview27"
     showgrid="false"
     inkscape:object-paths="true"
     inkscape:object-nodes="true"
     inkscape:snap-object-midpoints="true"
     inkscape:snap-intersection-paths="true"
     inkscape:snap-smooth-nodes="true"
     inkscape:zoom="2.8284271"
     inkscape:cx="210.40046"
     inkscape:cy="107.31481"
     inkscape:window-x="-9"
     inkscape:window-y="-9"
     inkscape:window-maximized="1"
     inkscape:current-layer="svg2" /><style
     type="text/css"
     id="style4">
	.st0{fill:#F8BD15;}
	.st1{fill:#FFFFFF;}
	.st2{fill:none;stroke:#FFFFFF;stroke-width:4.536;stroke-miterlimit:10;}
	.st3{fill:none;stroke:#FFFFFF;stroke-width:2.592;stroke-miterlimit:10;}
	.st4{fill:#F16667;}
	.st5{fill:#3BBEB5;}
</style><g
     transform="translate(-118.7 -109)"
     id="g6"><circle
       id="header-logo-background"
       d="m 381.5,240.39999 a 131.39999,131.39999 0 0 1 -131.39999,131.4 131.39999,131.39999 0 0 1 -131.4,-131.4 A 131.39999,131.39999 0 0 1 250.10001,109 131.39999,131.39999 0 0 1 381.5,240.39999 Z"
       cy="240.4"
       cx="250.1"
       r="131.4"
       class="st0"
       fill="#f8bd15" /></g><g
     fill="#fff"
     id="g9"><path
       class="st1"
       d="m70.7 112.5h-8.5v23.5h5.8v4.4h-5.8v12.9h-4.4v-45.1h12.9v4.3z"
       id="path11" /><path
       style="fill:#ffffff"
       d="M 75.300781 83.800781 L 75.300781 86 L 75.300781 88.199219 L 103.5 88.199219 L 103.5 153.09961 L 107.90039 153.09961 L 107.90039 88.199219 L 107.90039 86 L 107.90039 83.800781 L 75.300781 83.800781 z "
       id="path13" /><path
       class="st1"
       d="m156.2 153.4h-4.3l-5.9-25.7v25.7h-4.4v-45.1h4.5l5.7 25.7v-25.7h4.4v45.1z"
       id="path15" /><path
       class="st1"
       d="m205 148c0 0.1 0 0.2-0.1 0.4s-0.1 0.4-0.2 0.5c-0.2 1-0.8 1.9-1.7 2.7s-1.7 1.3-2.4 1.4c-0.1 0.1-0.3 0.1-0.5 0.2s-0.4 0.1-0.5 0.1h-9.3v-45.1h9.2c0.1 0 0.3 0 0.5 0.1 0.3 0.1 0.4 0.1 0.5 0.1 0.4 0.1 0.7 0.2 1.2 0.4 0.4 0.2 0.8 0.5 1.2 0.9 0.4 0.3 0.7 0.7 1 1.1s0.5 0.8 0.6 1.2c0.1 0.2 0.1 0.5 0.2 0.9s0.2 0.6 0.2 0.7v34.4zm-4.4-0.1v-34.1c0-0.3-0.2-0.5-0.5-0.8s-0.6-0.4-0.8-0.4h-4.6v36.4h4.6c0.3 0 0.5-0.1 0.8-0.4s0.5-0.5 0.5-0.7z"
       id="path17" /><rect
       style="fill:#f8bd15;fill-opacity:1;stroke:none;stroke-width:15;stroke-linecap:round;stroke-linejoin:round;stroke-miterlimit:4;stroke-dasharray:none;stroke-dashoffset:0;stroke-opacity:1"
       id="header-logo-vertical-trace"
       width="4.9003906"
       height="69.399002"
       x="103"
       y="14.401779" /></g><g
     id="header-logo-leaves"
     fill="#3bbeb5"><path
       class="st5"
       d="m78.1 74.5s1.4-5.2 8.2-3.6-1.5 4.2-8.2 3.6z"
       id="path23" /><path
       class="st5"
       d="m79.5 65.8s2.6 4.5-3.2 8.1c0.1 0.1-1.8-3.9 3.2-8.1z"
       id="path25" /></g><rect
     style="fill:#f8bd15;fill-opacity:1;stroke:none;stroke-width:15;stroke-linecap:round;stroke-linejoin:round;stroke-miterlimit:4;stroke-dasharray:none;stroke-dashoffset:0;stroke-opacity:1"
     id="header-logo-horizontal-trace"
     width="32.700001"
     height="4.4980001"
     x="107.90039"
     y="83.701218" /><circle
     id="header-logo-dot"
     class="st4"
     cy="86"
     cx="75.3"
     r="11.1"
     fill="#f16667" /></svg>