<?xml version="1.0" encoding="UTF-8" standalone="no"?>
<?xml-stylesheet type="text/css" href="../style/style.css" ?>
<svg xmlns:rdf="http://www.w3.org/1999/02/22-rdf-syntax-ns#" xmlns="http://www.w3.org/2000/svg" xml:space="preserve" height="262.8" width="262.8" version="1.1" y="0px" x="0px" xmlns:cc="http://creativecommons.org/ns#" xmlns:dc="http://purl.org/dc/elements/1.1/" viewBox="0 0 262.79999 262.79999"><style type="text/css">
	.st0{fill:#F8BD15;}
	.st1{fill:#FFFFFF;}
	.st2{fill:none;stroke:#FFFFFF;stroke-width:4.536;stroke-miterlimit:10;}
	.st3{fill:none;stroke:#FFFFFF;stroke-width:2.592;stroke-miterlimit:10;}
	.st4{fill:#F16667;}
	.st5{fill:#3BBEB5;}
</style><g transform="translate(-118.7 -109)"><circle id="header-logo-background" d="m 381.5,240.39999 a 131.39999,131.39999 0 0 1 -131.39999,131.4 131.39999,131.39999 0 0 1 -131.4,-131.4 A 131.39999,131.39999 0 0 1 250.10001,109 131.39999,131.39999 0 0 1 381.5,240.39999 Z" cy="240.4" cx="250.1" r="131.4" class="st0" fill="#f8bd15"/></g><g fill="#fff"><path d="m70.7 112.5h-8.5v23.5h5.8v4.4h-5.8v12.9h-4.4v-45.1h12.9v4.3z" class="st1"/><path d="m83.962 83.801v4.398h19.538v64.901h4.4v-69.299z"/><path d="m156.2 153.4h-4.3l-5.9-25.7v25.7h-4.4v-45.1h4.5l5.7 25.7v-25.7h4.4v45.1z" class="st1"/><path d="m205 148c0 0.1 0 0.2-0.1 0.4s-0.1 0.4-0.2 0.5c-0.2 1-0.8 1.9-1.7 2.7s-1.7 1.3-2.4 1.4c-0.1 0.1-0.3 0.1-0.5 0.2s-0.4 0.1-0.5 0.1h-9.3v-45.1h9.2c0.1 0 0.3 0 0.5 0.1 0.3 0.1 0.4 0.1 0.5 0.1 0.4 0.1 0.7 0.2 1.2 0.4 0.4 0.2 0.8 0.5 1.2 0.9 0.4 0.3 0.7 0.7 1 1.1s0.5 0.8 0.6 1.2c0.1 0.2 0.1 0.5 0.2 0.9s0.2 0.6 0.2 0.7v34.4zm-4.4-0.1v-34.1c0-0.3-0.2-0.5-0.5-0.8s-0.6-0.4-0.8-0.4h-4.6v36.4h4.6c0.3 0 0.5-0.1 0.8-0.4s0.5-0.5 0.5-0.7z" class="st1"/></g><rect id="header-logo-vertical-trace" height="69.399" width="4.7" y="153.1" x="103.3" fill="#f16667"/><rect height="70.105" width="5.601" y="153.1" x="102.8" fill="#f8bd15"/><g id="header-logo-leaves" fill="#3bbeb5"><path class="st5" d="m78.1 74.5s1.4-5.2 8.2-3.6-1.5 4.2-8.2 3.6z"/><path class="st5" d="m79.5 65.8s2.6 4.5-3.2 8.1c0.1 0.1-1.8-3.9 3.2-8.1z"/></g><rect id="header-logo-horizontal-trace" height="4.598" width="32.7" y="83.701" x="107.9" fill="#f16667"/><rect height="6.6508" width="33.4" y="82.973" x="107.9" fill="#f8bd15"/><circle cx="75.3" stroke="#fff" cy="86" r="8.8916" stroke-width="4.2168" fill="#f8bd15"/><circle id="header-logo-dot" class="st4" cy="86" cx="75.3" r="11.1" fill="#f16667"/></svg>
