<?xml version="1.0" encoding="UTF-8" standalone="no"?>
<svg xmlns:rdf="http://www.w3.org/1999/02/22-rdf-syntax-ns#" xmlns="http://www.w3.org/2000/svg" xml:space="preserve" viewBox="0 0 262.79999 262.79999" height="262.8" width="262.8" version="1.1" y="0px" x="0px" xmlns:cc="http://creativecommons.org/ns#" xmlns:dc="http://purl.org/dc/elements/1.1/"><style type="text/css">
	.st0{fill:#F8BD15;}
	.st1{fill:#FFFFFF;}
	.st2{fill:none;stroke:#FFFFFF;stroke-width:4.536;stroke-miterlimit:10;}
	.st3{fill:none;stroke:#FFFFFF;stroke-width:2.592;stroke-miterlimit:10;}
	.st4{fill:#F16667;}
	.st5{fill:#3BBEB5;}
</style><g transform="translate(-118.7 -109)"><circle d="m 381.5,240.39999 a 131.39999,131.39999 0 0 1 -131.39999,131.4 131.39999,131.39999 0 0 1 -131.4,-131.4 A 131.39999,131.39999 0 0 1 250.10001,109 131.39999,131.39999 0 0 1 381.5,240.39999 Z" cy="240.4" cx="250.1" r="131.4" class="st0" fill="#f8bd15"/></g><g fill="#fff"><path class="st1" d="m70.7 112.5h-8.5v23.5h5.8v4.4h-5.8v12.9h-4.4v-45.1h12.9v4.3z"/><path class="st1" d="m107.9 153.1h-4.4v-45.1h4.4v45.1z"/><path class="st1" d="m156.2 153.4h-4.3l-5.9-25.7v25.7h-4.4v-45.1h4.5l5.7 25.7v-25.7h4.4v45.1z"/><path class="st1" d="m205 148c0 0.1 0 0.2-0.1 0.4s-0.1 0.4-0.2 0.5c-0.2 1-0.8 1.9-1.7 2.7s-1.7 1.3-2.4 1.4c-0.1 0.1-0.3 0.1-0.5 0.2s-0.4 0.1-0.5 0.1h-9.3v-45.1h9.2c0.1 0 0.3 0 0.5 0.1 0.3 0.1 0.4 0.1 0.5 0.1 0.4 0.1 0.7 0.2 1.2 0.4 0.4 0.2 0.8 0.5 1.2 0.9 0.4 0.3 0.7 0.7 1 1.1s0.5 0.8 0.6 1.2c0.1 0.2 0.1 0.5 0.2 0.9s0.2 0.6 0.2 0.7v34.4zm-4.4-0.1v-34.1c0-0.3-0.2-0.5-0.5-0.8s-0.6-0.4-0.8-0.4h-4.6v36.4h4.6c0.3 0 0.5-0.1 0.8-0.4s0.5-0.5 0.5-0.7z"/></g><line stroke-width="4.536" y2="86.5" x2="105.7" stroke="#fff" stroke-miterlimit="10" y1="153.3" x1="105.7" class="st2" fill="none"/><line stroke-width="2.592" y2="86.5" x2="83.1" stroke="#fff" stroke-miterlimit="10" y1="86.5" x1="107.9" class="st3" fill="none"/><circle cy="86" cx="75.3" r="11.1" class="st4" fill="#f16667"/><path fill="#3bbeb5" class="st5" d="m78.1 74.5s1.4-5.2 8.2-3.6c0 0-1.5 4.2-8.2 3.6z"/><path fill="#3bbeb5" class="st5" d="m79.5 65.8s2.6 4.5-3.2 8.1c0.1 0.1-1.8-3.9 3.2-8.1z"/></svg>
