<?xml version="1.0" encoding="UTF-8" standalone="no"?>
<svg xmlns:rdf="http://www.w3.org/1999/02/22-rdf-syntax-ns#" xmlns="http://www.w3.org/2000/svg" xml:space="preserve" viewBox="0 0 191.2 191.3" height="191.3" width="191.2" version="1.1" y="0px" x="0px" xmlns:cc="http://creativecommons.org/ns#" xmlns:dc="http://purl.org/dc/elements/1.1/"><style type="text/css">
	.st0{fill:#F16667;}
	.st1{fill:none;stroke:#FFFFFF;stroke-width:4.536;stroke-miterlimit:10;}
</style><path fill="#f16667" class="st0" d="m179.2 191.3h-167.2c-6.6 0-12-5.4-12-12v-167.3c0-6.6 5.4-12 12-12h167.2c6.6 0 12 5.4 12 12v167.3c0 6.6-5.4 12-12 12z"/><g transform="translate(-154.8,-154.6)" stroke="#fff" stroke-miterlimit="10" stroke-width="4.536" fill="none"><line y2="231.1" x2="198.2" y1="202.6" x1="227.2" class="st1"/><line y2="255.2" x2="225.8" y1="229.6" x1="200.2" class="st1"/><line y2="242.4" x2="225.8" y1="256.6" x1="225.8" class="st1"/><line y2="242.4" x2="270" y1="242.4" x1="223.7" class="st1"/><line y2="299.2" x2="267.8" y1="242.4" x1="267.8" class="st1"/><line y2="299.2" x2="294.5" y1="299.2" x1="266" class="st1"/><line y2="216.1" x2="292.5" y1="299.2" x1="292.5" class="st1"/><line y2="216.1" x2="225.2" y1="216.1" x1="294.7" class="st1"/><line y2="201.2" x2="227.2" y1="218.2" x1="227.2" class="st1"/></g></svg>
