<?xml version="1.0" encoding="UTF-8" standalone="no"?>
<svg xmlns:rdf="http://www.w3.org/1999/02/22-rdf-syntax-ns#" xmlns="http://www.w3.org/2000/svg" xml:space="preserve" viewBox="0 0 191.3 191.2" height="191.2" width="191.3" version="1.1" y="0px" x="0px" xmlns:cc="http://creativecommons.org/ns#" xmlns:dc="http://purl.org/dc/elements/1.1/"><style type="text/css">
	.st0{fill:#F16667;}
	.st1{fill:none;stroke:#FFFFFF;stroke-width:4.536;stroke-miterlimit:10;}
	.st2{fill:#FFFFFF;stroke:#FDFDFE;stroke-width:4.536;stroke-miterlimit:10;}
	.st3{fill:none;stroke:#FDFDFE;stroke-width:3.096;stroke-miterlimit:10;}
	.st4{fill:none;stroke:#FFFFFF;stroke-width:2.664;stroke-miterlimit:10;}
	.st5{fill:#FFFFFF;}
</style><path fill="#f16667" class="st0" d="m179.3 191.2h-167.3c-6.6 0-12-5.4-12-12v-167.2c0-6.6 5.4-12 12-12h167.3c6.6 0 12 5.4 12 12v167.3c0 6.5-5.4 11.9-12 11.9z"/><rect class="st1" height="113.5" width="88" stroke="#fff" stroke-miterlimit="10" y="34.9" x="50.9" stroke-width="4.536" fill="none"/><g stroke="#fdfdfe" stroke-width="4.536" stroke-miterlimit="10" fill="#fff"><circle cy="52.7" cx="63.9" r="2.7" class="st2"/><circle cy="111.1" cx="63.9" r="2.7" class="st2"/><circle cy="81.7" cx="63.9" r="2.7" class="st2"/></g><g stroke-miterlimit="10" fill="none"><g stroke="#fdfdfe" stroke-width="3.096"><line y2="52.7" x2="114.6" y1="52.7" x1="76.3" class="st3"/><line y2="111.1" x2="114.1" y1="111.1" x1="75.8" class="st3"/><line y2="81.7" x2="114.8" y1="81.7" x1="76.5" class="st3"/><line y2="60.7" x2="114.1" y1="60.7" x1="75.8" class="st3"/><line y2="89.7" x2="114.6" y1="89.7" x1="76.3" class="st3"/><line y2="119.4" x2="114.1" y1="119.4" x1="75.8" class="st3"/></g><g stroke="#fff" stroke-width="2.664"><path d="m119 100.7c15.2-14.9 29.8-30.5 45.3-45.3" class="st4"/><line y2="67.4" x2="176.2" y1="55.4" x1="164.2" class="st4"/><path d="m176.2 67.4c-15 14.3-29 29.3-43.9 43.9" class="st4"/><line y2="121.1" x2="111.9" y1="101" x1="119" class="st4"/><line y2="110.3" x2="133.3" y1="121.1" x1="111.9" class="st4"/></g></g><g transform="translate(-163.7,-144.6)"><path fill="#fff" class="st5" d="m277.2 262.4c0.3 0.4-0.3-0.4 0 0 0 0.2 0.3 0.7 0 0 0.3 0.6 0.6 1.1 1.2 1.5 0.5 0.3 1.3 0.4 1.9 0.3 1.2-0.4 2.3-1.8 1.7-3.1-0.4-0.9-0.7-1.5-1.3-2.2-0.9-1-2.7-0.9-3.5 0-1 1.1-0.9 2.5 0 3.5z"/></g><g transform="translate(-163.7,-144.6)"><path fill="#fff" class="st5" d="m275.8 267.2c1.9 0 1.9-3 0-3-2 0-2 3 0 3z"/></g><g transform="translate(-163.7,-144.6)"><path fill="#fff" class="st5" d="m339.9 213.4c1.9 0 1.9-3 0-3-2 0-2 3 0 3z"/></g><g transform="translate(-163.7,-144.6)"><path fill="#fff" class="st5" d="m282.6 247.1c0.7-0.1 1.8-0.3 2.5 0.2 0.6 0.5 0.5 1.5 0.4 2.2-0.1 1.9 2.9 1.9 3 0 0.1-1.7-0.2-3.4-1.5-4.5-1.5-1.2-3.4-1-5.2-0.8-0.8 0.1-1.2 1.1-1 1.8 0.2 0.9 1 1.2 1.8 1.1z"/></g><g transform="translate(-163.7,-144.6)"><path fill="#fff" class="st5" d="m287.5 251c0.7-0.2 1.4-0.3 2 0.2 0.3 0.2 0.7 0.8 0.5 1.2-0.3 0.7-0.2 1.6 0.5 2.1 0.6 0.4 1.7 0.2 2.1-0.5 0.7-1.6 0.5-3.5-0.9-4.8-1.3-1.3-3.3-1.5-5-1-1.9 0.5-1.1 3.4 0.8 2.8z"/></g><g transform="translate(-163.7,-144.6)"><path fill="#fff" class="st5" d="m290.8 255c1 0.2 1.8 0.7 2.5 1.5 0.5 0.6 1.6 0.5 2.1 0 0.6-0.6 0.5-1.5 0-2.1-0.9-1.2-2.3-2-3.8-2.2-0.8-0.1-1.6 0.2-1.8 1-0.3 0.7 0.2 1.7 1 1.8z"/></g><g transform="translate(-163.7,-144.6)"><path fill="#f16667" class="st0" d="m303.2 228.6c-1.6 2-3.3 3.9-5.1 5.7-2.3 2.3 1.3 5.8 3.5 3.5l6.2-6.2c2.3-2.3-1.1-5.6-3.5-3.5-2.7 2.2-5.4 4.5-8.1 6.7l3.5 3.5c2.2-2.8 4.5-5.3 7.1-7.6 2.4-2.2-1.1-5.7-3.5-3.5-1.7 1.5-3.3 3-5 4.5l3.5 3.5c2.3-2.7 4.7-5.3 7.3-7.9 2.3-2.3-1.2-5.8-3.5-3.5-3.5 3.4-6.6 7.2-9.4 11.3-1.4 2.1 1.4 4.8 3.4 3.4 4-2.6 7.9-5.1 11.9-7.7l-3-3.9c-2.9 3.8-5.9 7.6-8.8 11.3-1.9 2.5 1.3 6 3.5 3.5 2.9-3.3 6-6.3 9.2-9.3l-3.5-3.5c-4.5 5.1-8.9 10.3-13.4 15.4l3.5 3.5c2.7-3.3 5.7-6.3 8.9-9.1 2.5-2.1-1.1-5.6-3.5-3.5-3.3 2.8-6.2 5.8-8.9 9.1-2 2.5 1.4 6 3.5 3.5 4.5-5.1 8.9-10.3 13.4-15.4 2.1-2.4-1.1-5.7-3.5-3.5-3.2 3-6.3 6-9.2 9.3l3.5 3.5c2.9-3.8 5.9-7.6 8.8-11.3 1.6-2-0.4-5.6-3-3.9-4 2.6-7.9 5.1-11.9 7.7l3.4 3.4c2.5-3.7 5.4-7.1 8.6-10.2l-3.5-3.5c-2.6 2.5-5 5.1-7.3 7.9-2.1 2.5 1.1 5.7 3.5 3.5 1.7-1.5 3.3-3 5-4.5l-3.5-3.5c-2.6 2.4-4.9 4.9-7.1 7.6-2 2.5 1 5.6 3.5 3.5 2.7-2.2 5.4-4.5 8.1-6.7l-3.5-3.5-6.2 6.2 3.5 3.5c1.8-1.8 3.5-3.7 5.1-5.7 2.1-2.5-1.5-6.1-3.5-3.6z"/></g><g transform="translate(-163.7,-144.6)"><path fill="#f16667" class="st0" d="m300.8 249.5c1.3-1.5 2.6-3 3.9-4.5-1.3-0.2-2.6-0.3-3.9-0.5 0 0.1 0.1 0.1 0.1 0.2-0.1-0.6-0.2-1.3-0.3-1.9v0.2c-0.4 1.3 0.4 2.7 1.7 3.1s2.7-0.4 3.1-1.7c0.2-0.8 0.1-1.5-0.3-2.2-0.8-1.3-2.9-1.7-3.9-0.5-1.3 1.5-2.6 3-3.9 4.5-0.9 1-1 2.5 0 3.5 0.9 0.7 2.7 0.8 3.5-0.2z"/></g><g transform="translate(-163.7,-144.6)"><path fill="#fff" class="st5" d="m327.6 200.7c0.3-0.2 0.6-0.4 0.8-0.7s0.2-0.7-0.2-0.8c-0.3-0.1-0.6-0.1-0.9 0 0.2 0.2 0.4 0.5 0.6 0.7 0.1-0.1 0.4 0.2 0.4 0.2 0.2 0.1 0.5 0.1 0.6-0.1s0.2-0.4 0.1-0.6c-0.3-0.5-1.2 0-0.9 0.5 0-0.2 0.1-0.4 0.1-0.6 0.2 0 0.4-0.1 0.6-0.1-0.6-0.4-1.3-0.6-1.8 0.1-0.3 0.4 0.2 0.8 0.6 0.7h0.4c-0.1-0.3-0.1-0.6-0.2-0.8l-0.6 0.6c-0.6 0.4-0.1 1.3 0.4 0.9z"/></g><g transform="translate(-163.7,-144.6)"><path fill="#fff" class="st5" d="m327.9 199.1l0.3 0.3c0 0.1-0.1 0.2-0.1 0.4-0.1 0-0.2 0 0 0.1 0.2-0.3 0.4-0.5 0.6-0.8-0.4-0.3-1-0.4-1.4-0.2-0.6 0.2-0.3 1.2 0.3 1 0.3-0.1 0.4-0.1 0.7 0.1 0.5 0.3 1-0.4 0.6-0.8s-1-0.6-1.4-0.1 0 1.1 0.6 1.1c0.5-0.1 0.5-1.1-0.2-1.1z"/></g></svg>
