<?xml version="1.0" encoding="UTF-8" standalone="no"?>
<svg xmlns:rdf="http://www.w3.org/1999/02/22-rdf-syntax-ns#" xmlns="http://www.w3.org/2000/svg" xml:space="preserve" viewBox="0 0 191.3 191.2" height="191.2" width="191.3" version="1.1" y="0px" x="0px" xmlns:cc="http://creativecommons.org/ns#" xmlns:dc="http://purl.org/dc/elements/1.1/"><style type="text/css">
	.st0{fill:#F16667;}
	.st1{fill:#FFFFFF;}
</style><path fill="#f16667" class="st0" d="m179.2 191.2h-167.2c-6.6 0-12-5.4-12-12v-167.2c0-6.6 5.4-12 12-12h167.3c6.6 0 12 5.4 12 12v167.3c-0.1 6.5-5.5 11.9-12.1 11.9z"/><path fill="#fff" class="st1" d="m64.8 140.6s26.7 3.8 26.7-17.2h-9.7s-1.4 17.2-17 17.2z"/><ellipse rx="47.8" ry="39.2" class="st1" cy="87.6" cx="87.3" fill="#fff"/><g fill="#f16667"><rect class="st0" height="9.8" width="9.8" y="84.6" x="59.8"/><rect class="st0" height="9.8" width="9.8" y="84.6" x="82.1"/><rect class="st0" height="9.8" width="9.8" y="84.6" x="105"/></g></svg>
