<?xml version="1.0" encoding="UTF-8" standalone="no"?>
<?xml-stylesheet type="text/css" href="../style/style.css" ?>
<svg xmlns:rdf="http://www.w3.org/1999/02/22-rdf-syntax-ns#" xmlns="http://www.w3.org/2000/svg" xml:space="preserve" height="191.2" width="191.3" version="1.1" y="0px" x="0px" xmlns:cc="http://creativecommons.org/ns#" xmlns:dc="http://purl.org/dc/elements/1.1/" viewBox="0 0 191.3 191.2"><style type="text/css">
	.st0{fill:#F16667;}
	.st1{fill:none;stroke:#FFFFFF;stroke-width:4.536;stroke-miterlimit:10;}
	.st2{fill:#FFFFFF;stroke:#FDFDFE;stroke-width:4.536;stroke-miterlimit:10;}
	.st3{fill:none;stroke:#FDFDFE;stroke-width:3.096;stroke-miterlimit:10;}
	.st4{fill:none;stroke:#FFFFFF;stroke-width:2.664;stroke-miterlimit:10;}
	.st5{fill:#FFFFFF;}
</style><path d="m179.3 191.2h-167.3c-6.6 0-12-5.4-12-12v-167.2c0-6.6 5.4-12 12-12h167.3c6.6 0 12 5.4 12 12v167.3c0 6.5-5.4 11.9-12 11.9z" class="st0" fill="#f16667"/><g stroke-miterlimit="10"><rect height="113.5" width="88" stroke="#fff" y="34.9" x="50.9" stroke-width="4.536" class="st1" fill="none"/><g stroke="#fdfdfe" stroke-width="4.536" fill="#fff"><circle cy="52.7" cx="63.9" r="2.7" class="st2"/><circle cy="111.1" cx="63.9" r="2.7" class="st2"/><circle cy="81.7" cx="63.9" r="2.7" class="st2"/></g><g fill="none"><g stroke="#fdfdfe" stroke-width="3.096"><line y2="52.7" y1="52.7" x2="114.6" x1="76.3" class="st3"/><line y2="111.1" y1="111.1" x2="114.1" x1="75.8" class="st3"/><line y2="81.7" y1="81.7" x2="114.8" x1="76.5" class="st3"/><line y2="60.7" y1="60.7" x2="114.1" x1="75.8" class="st3"/><line y2="89.7" y1="89.7" x2="114.6" x1="76.3" class="st3"/><line y2="119.4" y1="119.4" x2="114.1" x1="75.8" class="st3"/></g></g></g><g id="icon-list-pencil"><g transform="matrix(.86603 .5 -.5 .86603 46.592 -83.114)"><path stroke-linejoin="round" d="m152.92 52.863v64.408l6.582 24.566 6.582-24.566v-64.408h-13.164z" transform="translate(-.0000030526)" stroke="#fff" stroke-linecap="round" stroke-width="4" fill="#f16667"/><circle d="m 161.38145,133.16046 a 1.8793323,1.8793323 0 0 1 -1.87933,1.87933 1.8793323,1.8793323 0 0 1 -1.87933,-1.87933 1.8793323,1.8793323 0 0 1 1.87933,-1.87933 1.8793323,1.8793323 0 0 1 1.87933,1.87933 z" cy="133.16" cx="159.5" r="1.8793" fill="#fff"/><path stroke-linejoin="round" d="m152.92 117.27 6.5822-3.6964 6.5819 3.6964" stroke="#fff" stroke-width="4" fill="none"/></g></g></svg>
