<?xml version="1.0" encoding="UTF-8" standalone="no"?>
<svg xmlns:rdf="http://www.w3.org/1999/02/22-rdf-syntax-ns#" xmlns="http://www.w3.org/2000/svg" xml:space="preserve" viewBox="0 0 191.3 191.2" height="191.2" width="191.3" version="1.1" y="0px" x="0px" xmlns:cc="http://creativecommons.org/ns#" xmlns:dc="http://purl.org/dc/elements/1.1/"><style type="text/css">
	.st0{fill:#F16667;}
	.st1{fill:none;stroke:#FFFFFF;stroke-width:2.232;stroke-miterlimit:10;}
	.st2{fill:none;stroke:#FFFFFF;stroke-width:7.2;stroke-miterlimit:10;}
	.st3{fill:#FFFFFF;}
</style><path fill="#f16667" class="st0" d="m179.3 191.2h-167.3c-6.6 0-12-5.4-12-12v-167.2c0-6.6 5.4-12 12-12h167.3c6.6 0 12 5.4 12 12v167.3c0 6.5-5.4 11.9-12 11.9z"/><g stroke="#fff" stroke-miterlimit="10" fill="none"><path d="m23.4 51.7" class="st1" stroke-width="2.232"/><line stroke-width="7.2" y2="66.4" x2="53.4" y1="53.7" x1="24.4" class="st2"/><line stroke-width="7.2" y2="75.1" x2="32.4" y1="45.6" x1="42.4" class="st2"/></g><g transform="translate(-148.8,-171.9)"><path fill="#fff" class="st3" d="m213.7 232h11.5c3.2 0 3.2-5 0-5h-11.5c-3.3 0-3.3 5 0 5z"/></g><g transform="translate(-148.8,-171.9)"><path fill="#fff" class="st3" d="m234.9 235.6c3.8 2.6 7.3 5.4 10.6 8.5 2.3 2.2 5.9-1.3 3.5-3.5-3.6-3.4-7.5-6.5-11.6-9.3-2.7-1.8-5.2 2.5-2.5 4.3z"/></g><g transform="translate(-148.8,-171.9)"><path fill="#fff" class="st3" d="m246.6 252c0.4 3.4-0.1 6.7-1.6 9.7-1.4 2.9 2.9 5.4 4.3 2.5 1.9-3.8 2.8-8 2.3-12.3-0.3-3.1-5.3-3.1-5 0.1z"/></g><g transform="translate(-148.8,-171.9)"><path fill="#fff" class="st3" d="m238.3 268.2c-2.3 1.5-4.7 3-7 4.5-2.7 1.7-0.2 6.1 2.5 4.3 2.3-1.5 4.7-3 7-4.5 2.8-1.7 0.3-6.1-2.5-4.3z"/></g><g transform="translate(-148.8,-171.9)"><path fill="#fff" class="st3" d="m220.9 279.4c-3.1 1.9-5.9 4.4-8.2 7.2-0.8 1.1-1 2.5 0 3.5 0.9 0.9 2.7 1.1 3.5 0 2-2.5 4.4-4.7 7.2-6.4s0.3-6.1-2.5-4.3z"/></g><g transform="translate(-148.8,-171.9)"><path fill="#fff" class="st3" d="m205.4 296.8c-1.1 4.1-1.8 8.4-2.1 12.6-0.3 3.2 4.7 3.2 5 0 0.3-3.8 1-7.6 2-11.3 0.7-3.1-4.1-4.4-4.9-1.3z"/></g><g transform="translate(-148.8,-171.9)"><path fill="#fff" class="st3" d="m207.9 318.8c3.3 4.7 8 8.1 13.6 9.5 3.1 0.8 4.5-4.1 1.3-4.8-4.3-1.1-8.1-3.5-10.6-7.2-1.8-2.7-6.1-0.2-4.3 2.5z"/></g><g transform="translate(-148.8,-171.9)"><path fill="#fff" class="st3" d="m230.2 328.4c4 0.2 8 0.1 12-0.2 3.2-0.3 3.2-5.3 0-5-4 0.3-8 0.4-12 0.2-3.2-0.2-3.2 4.8 0 5z"/></g><g transform="translate(-148.8,-171.9)"><path fill="#fff" class="st3" d="m255.4 323.1c2.4-1.7 4.6-3.6 6.5-5.9 0.9-1 1-2.5 0-3.5-0.9-0.9-2.7-1-3.5 0-1.6 1.9-3.4 3.7-5.5 5.1-1.1 0.8-1.6 2.2-0.9 3.4 0.7 1.1 2.3 1.7 3.4 0.9z"/></g><g transform="translate(-148.8,-171.9)"><path fill="#fff" class="st3" d="m268.3 309.5c1-2.7 2.2-5.3 3.5-7.8 1.4-2.9-2.9-5.4-4.3-2.5-1.5 2.9-2.8 6-4 9-0.5 1.3 0.5 2.7 1.7 3.1 1.4 0.4 2.6-0.5 3.1-1.8z"/></g><g transform="translate(-148.8,-171.9)"><path fill="#fff" class="st3" d="m274.3 290.7c2.2-3 4.4-6 6.6-8.9 1.9-2.6-2.4-5.1-4.3-2.5-2.2 3-4.4 6-6.6 8.9-2 2.5 2.4 5 4.3 2.5z"/></g><g transform="translate(-148.8,-171.9)"><path fill="#fff" class="st3" d="m287.2 281c4.8-0.2 9.7-0.1 14.5 0.2 3.2 0.2 3.2-4.8 0-5-4.8-0.4-9.7-0.4-14.5-0.2-3.2 0.1-3.3 5.1 0 5z"/></g></svg>
