<?xml version="1.0" encoding="UTF-8" standalone="no"?>
<svg xmlns:rdf="http://www.w3.org/1999/02/22-rdf-syntax-ns#" xmlns="http://www.w3.org/2000/svg" xml:space="preserve" viewBox="0 0 191.3 191.2" height="191.2" width="191.3" version="1.1" y="0px" x="0px" xmlns:cc="http://creativecommons.org/ns#" xmlns:dc="http://purl.org/dc/elements/1.1/"><style type="text/css">
	.st0{fill:#F16667;}
	.st1{fill:#FFFFFF;}
	.st2{fill:none;stroke:#F16667;stroke-width:4.536;stroke-miterlimit:10;}
</style><path fill="#f16667" class="st0" d="m179.3 191.2h-167.3c-6.6 0-12-5.4-12-12v-167.2c0-6.6 5.4-12 12-12h167.3c6.6 0 12 5.4 12 12v167.3c0 6.5-5.4 11.9-12 11.9z"/><g fill="#fff"><ellipse rx="51" ry="37.9" class="st1" cy="99.2" cx="102.5"/><rect class="st1" height="21" width="15.3" y="126.2" x="122.1"/><rect class="st1" height="26.6" width="15.7" y="120.5" x="66.4"/></g><g transform="translate(-163.3,-154.4)"><path fill="#fff" class="st1" d="m316.5 249.6c1.7-1.9 3.5-3.6 5.8-4.8 2.5-1.4 5.8-0.5 6.2 2.8 0.2 1.2-0.2 2.5-1.7 2-2-0.6-1.8-3.5-1.4-5 0.7-2.6 2.4-5 5.2-5.5 3.2-0.6 1.8-5.4-1.3-4.8-5.7 1.1-9.9 7.9-9 13.6 0.8 5.1 6.9 9.3 11.4 5.3 4.2-3.7 1.2-10.6-2.9-13.1-5.7-3.5-12.1 1.9-15.7 6-2.3 2.4 1.2 5.9 3.4 3.5z"/></g><g fill="#fff"><ellipse rx="26.2" ry="27.9" class="st1" cy="90.2" cx="61.6"/><path class="st1" d="m53.5 65.9 3.6-15.9s8.3 3 8.7 14.5l-12.3 1.4z"/><path class="st1" d="m38.4 81.2h-12.9s-4.6 8.9 0 17.9h14.1"/></g><g transform="translate(-163.3,-154.4)"><path fill="#f16667" class="st0" d="m277.6 235.4c-4-5.3-10.6-7.9-17.1-5.7-5.9 2-11 8.8-10.4 15.2 0.6 7.1 13.4 5.7 18.2 7.1 2.9 0.8 5.8 2.2 7 5.2 1.7 4.6-2.4 6.3-5.8 7-5.6 1.2-11.2-0.2-16-3.1-2.8-1.7-5.3 2.7-2.5 4.3 6.5 3.9 14.7 5.4 22 3 5.9-2 9.6-7.4 6.9-13.5-3.1-7.1-11.1-8.1-17.9-9-2.4-0.3-6.3-0.2-6.6-3.3-0.2-2.3 2.4-5.2 4-6.5 4.3-3.5 10.7-2.5 14 1.8 1.8 2.6 6.1 0.1 4.2-2.5z"/></g><line stroke-width="4.536" y2="120.5" x2="101.1" stroke="#f16667" stroke-miterlimit="10" y1="70" x1="101.8" class="st2" fill="none"/></svg>
