<?xml version="1.0" encoding="UTF-8" standalone="no"?>
<?xml-stylesheet type="text/css" href="../style/style.css" ?>
<svg xmlns:rdf="http://www.w3.org/1999/02/22-rdf-syntax-ns#" xmlns="http://www.w3.org/2000/svg" xml:space="preserve" viewBox="0 0 1300 700" height="700" width="1300" version="1.1" y="0px" x="0px" xmlns:cc="http://creativecommons.org/ns#" xmlns:dc="http://purl.org/dc/elements/1.1/"><style type="text/css">
	.st0{fill:#F8BD15;}
	.st1{fill:#F16667;}
	.st2{fill:#FFFFFF;}
	.st3{fill:none;stroke:#F16667;stroke-width:18;stroke-miterlimit:10;}
	.st4{font-family:&apos;ProstoSans-Bold&apos;;}
	.st5{font-size:36px;}
</style><g fill="#f8bd15"><rect class="st0" height="215.7" width="72.4" y="101.35" x="243.8"/><rect class="st0" height="215.7" width="72.4" y="364.75" x="243.8"/><rect class="st0" height="215.7" width="72.4" y="364.75" x="354.3"/><rect class="st0" height="215.7" width="72.4" y="101.35" x="354.3"/><rect class="st0" height="215.7" width="72.4" y="101.35" x="470.7"/><rect class="st0" height="215.7" width="72.4" y="364.75" x="470.7"/><rect class="st0" height="215.7" width="72.4" y="101.35" x="592.1"/><rect class="st0" height="215.7" width="72.4" y="364.75" x="592.1"/></g><circle id="retail-dot-d" cy="457.75" cx="567" r="18.7" class="st1" fill="#f16667"/><g fill="#f8bd15"><rect class="st0" height="129.5" width="129.5" y="103.55" x="69.3"/><rect class="st0" height="126.5" width="126.5" y="282.85" x="69.3"/><rect class="st0" height="126.5" width="126.5" y="457.75" x="69.3"/></g><g fill="#f16667"><circle id="retail-dot-b" cy="612.95" cx="298.7" r="18.7" class="st1"/><circle id="retail-dot-a" cy="258.55" cx="217.5" r="18.7" class="st1"/><circle id="retail-dot-c" cy="341.65" cx="449.5" r="18.7" class="st1"/></g><rect class="st0" height="315.6" width="315.6" y="128.05" x="819.7" fill="#f8bd15"/><circle id="retail-dot-e" cy="493.35" cx="1185" r="45.7" class="st1" fill="#f16667"/><text font-size="36px" y="605.71637" x="801.95215" font-family="ProstoSans-Bold" class="st1 st4 st5" fill="#f16667">10.04.15</text>
<text id="retail-time" font-size="36px" y="605.71637" x="1007.4308" font-family="ProstoSans-Bold" class="st0 st4 st5" fill="#f8bd15">4:30 PM</text>
<path d="m770 493.35h415v-415h-415z" stroke="#f16667" stroke-dasharray="40, 40" stroke-width="20" fill="none"/></svg>
